<?xml version="1.0" standalone="no"?><!DOCTYPE svg PUBLIC "-//W3C//DTD SVG 1.1//EN" "http://www.w3.org/Graphics/SVG/1.1/DTD/svg11.dtd"><svg class="icon" width="24px" height="24.00px" viewBox="0 0 1024 1024" version="1.1" xmlns="http://www.w3.org/2000/svg"><path d="M916.196431 775.613046c0.401723-0.555323 0.811323-1.094892 1.189415-1.665969 0.441108-0.673477 0.842831-1.366646 1.248492-2.055877 0.413538-0.704985 0.842831-1.398154 1.224862-2.126769 0.311138-0.590769 0.578954-1.201231 0.8704-1.799877 0.405662-0.854646 0.811323-1.705354 1.169723-2.583631 0.220554-0.535631 0.401723-1.083077 0.594708-1.626585 0.350523-0.953108 0.701046-1.902277 0.988554-2.882953 0.173292-0.571077 0.295385-1.150031 0.445046-1.728985 0.244185-0.945231 0.496246-1.890462 0.685292-2.863262 0.1536-0.787692 0.248123-1.583262 0.366277-2.37883 0.106338-0.764062 0.244185-1.524185 0.322954-2.300062 0.129969-1.346954 0.185108-2.701785 0.2048-4.056615 0.003938-0.236308 0.035446-0.4608 0.035446-0.697108v-0.114215V307.385108a49.230769 49.230769 0 0 0-22.228677-41.1648L545.575385 31.523446l-0.07877-0.0512-0.764061-0.500184c-0.3584-0.236308-0.736492-0.417477-1.094892-0.64197-0.905846-0.5632-1.819569-1.118523-2.760862-1.618707-0.653785-0.346585-1.315446-0.653785-1.977108-0.968862-0.756185-0.3584-1.508431-0.724677-2.280369-1.043692a48.521846 48.521846 0 0 0-2.449723-0.917662c-0.657723-0.236308-1.315446-0.472615-1.984985-0.677415a48.959015 48.959015 0 0 0-2.654523-0.7168c-0.657723-0.161477-1.311508-0.326892-1.973169-0.4608-0.866462-0.173292-1.728985-0.315077-2.599385-0.441108-0.732554-0.110277-1.457231-0.212677-2.197661-0.291446a46.513231 46.513231 0 0 0-2.343385-0.169354 49.285908 49.285908 0 0 0-2.53243-0.086646c-0.681354 0-1.354831 0.023631-2.032247 0.0512a48.088615 48.088615 0 0 0-2.812061 0.173292c-0.610462 0.059077-1.216985 0.145723-1.823508 0.224493-0.968862 0.129969-1.933785 0.271754-2.898708 0.4608-0.626215 0.122092-1.240615 0.275692-1.862892 0.417477-0.901908 0.212677-1.807754 0.429292-2.705723 0.697107-0.740431 0.220554-1.472985 0.480492-2.205538 0.736493-0.748308 0.259938-1.492677 0.512-2.233108 0.811323-0.933415 0.374154-1.8432 0.807385-2.756923 1.240615-0.425354 0.2048-0.862523 0.362338-1.283939 0.578954L111.454523 225.027938c-0.082708 0.043323-0.1536 0.094523-0.236308 0.137847-0.145723 0.078769-0.299323 0.141785-0.445046 0.216615-1.161846 0.618338-2.280369 1.291815-3.375261 1.992862-0.3072 0.192985-0.598646 0.401723-0.901908 0.602584-0.937354 0.630154-1.851077 1.287877-2.737231 1.977108-0.338708 0.263877-0.685292 0.519877-1.020061 0.791631-1.035815 0.846769-2.036185 1.732923-2.99717 2.654523-0.338708 0.330831-0.661662 0.673477-0.992492 1.012184-0.6656 0.681354-1.315446 1.3824-1.941661 2.0992-0.342646 0.393846-0.685292 0.779815-1.012185 1.181539-0.823138 1.008246-1.618708 2.044062-2.359138 3.111384-0.212677 0.3072-0.401723 0.622277-0.602585 0.933416-0.578954 0.882215-1.134277 1.780185-1.658092 2.697846-0.220554 0.389908-0.441108 0.779815-0.653785 1.173661-0.626215 1.165785-1.216985 2.3552-1.744738 3.572185l-0.074831 0.1536a49.837292 49.837292 0 0 0-1.811693 4.993969c-0.346585 1.118523-0.653785 2.2528-0.917661 3.398893-0.059077 0.259938-0.133908 0.515938-0.189046 0.775877-0.287508 1.339077-0.515938 2.693908-0.689231 4.064492-0.055138 0.413538-0.086646 0.831015-0.129969 1.248492a52.499692 52.499692 0 0 0-0.212677 2.957785c-0.019692 0.508062-0.047262 1.016123-0.0512 1.524184 0 0.181169-0.019692 0.362338-0.019692 0.543508v439.453539a49.230769 49.230769 0 0 0 21.740307 40.841846l365.308062 245.88603c0.760123 0.512 1.547815 0.976738 2.327631 1.441477 0.220554 0.129969 0.425354 0.275692 0.649846 0.401723 1.658092 0.953108 3.367385 1.776246 5.104246 2.524554 0.299323 0.129969 0.594708 0.259938 0.897969 0.38597 1.744738 0.708923 3.524923 1.311508 5.328739 1.811692l0.917661 0.244184c1.835323 0.472615 3.690338 0.854646 5.565046 1.110647 0.271754 0.035446 0.543508 0.059077 0.815262 0.086646 1.898338 0.232369 3.808492 0.374154 5.722584 0.378092 0.070892 0 0.141785 0.015754 0.212677 0.015754 3.493415 0 7.002585-0.445046 10.480246-1.209108 0.445046-0.094523 0.897969-0.141785 1.339077-0.252061 1.051569-0.259938 2.079508-0.641969 3.1232-0.976739 0.917662-0.295385 1.851077-0.539569 2.756923-0.890092 0.783754-0.303262 1.551754-0.712862 2.327631-1.063385 1.024-0.456862 2.059815-0.862523 3.060185-1.394215l0.413538-0.240246c0.055138-0.031508 0.114215-0.0512 0.169354-0.082708l376.6784-207.111877 0.350523-0.192984 0.066954-0.035447c0.129969-0.070892 0.244185-0.157538 0.374154-0.232369 1.264246-0.712862 2.500923-1.461169 3.694277-2.280369 0.606523-0.413538 1.169723-0.874338 1.752615-1.311508 0.677415-0.508062 1.366646-1.000369 2.012554-1.543877 0.740431-0.6144 1.425723-1.276062 2.122831-1.925907 0.452923-0.425354 0.9216-0.834954 1.358769-1.276062 0.704985-0.7168 1.358769-1.465108 2.012554-2.213415 0.393846-0.448985 0.799508-0.886154 1.1776-1.346954 0.575015-0.728615 1.110646-1.480862 1.654154-2.233108zM827.076923 717.725538l-278.6304 153.198277V543.822769l202.350277-111.253661c23.827692-13.099323 32.519877-43.031631 19.420554-66.859323-13.095385-23.823754-43.035569-32.519877-66.859323-19.420554l-201.554708 110.816492-271.178831-182.512246 284.0576-145.573415L827.076923 333.965785v383.759753zM183.138462 361.3184l266.846523 179.605662v320.771938L183.138462 682.0864V361.3184z" fill="#275DAD" /></svg>